<svg xmlns="http://www.w3.org/2000/svg" version="1.1" xmlns:xlink="http://www.w3.org/1999/xlink" xmlns:svgjs="http://svgjs.dev/svgjs" width="1500" height="1500" viewBox="0 0 1500 1500"><rect width="1500" height="1500" fill="#000000"></rect><g transform="matrix(0.6666666666666666,0,0,0.6666666666666666,249.39393939393938,574.4820632411391)"><svg viewBox="0 0 396 139" data-background-color="#fdf8f1" preserveAspectRatio="xMidYMid meet" height="526" width="1500" xmlns="http://www.w3.org/2000/svg" xmlns:xlink="http://www.w3.org/1999/xlink"><g id="tight-bounds" transform="matrix(1,0,0,1,0.2400000000000091,0.07317455175382293)"><svg viewBox="0 0 395.52 138.85365089649233" height="138.85365089649233" width="395.52"><g><svg viewBox="0 0 630.5264183454884 221.35642995034416" height="138.85365089649233" width="395.52"><g transform="matrix(1,0,0,1,233.02881834548853,68.4023498204081)"><svg viewBox="0 0 397.4975999999999 84.55173030952795" height="84.55173030952795" width="397.4975999999999"><g id="textblocktransform"><svg viewBox="0 0 397.4975999999999 84.55173030952795" height="84.55173030952795" width="397.4975999999999" id="textblock"><g><rect width="397.4975999999999" height="4.994536736563553" x="0" y="61.26706723807501" fill="#ffffff" opacity="1" stroke-width="0" stroke="transparent" fill-opacity="1" class="rect-qz-0" data-fill-palette-color="primary" rx="1%" id="qz-0" data-palette-color="#fa4238"></rect></g><g transform="matrix(1,0,0,1,0.9887999999999693,0)"><svg viewBox="0 0 395.52 55.383450663589144" height="55.383450663589144" width="395.52"><g transform="matrix(1,0,0,1,0,0)"><svg width="395.52" viewBox="0.85 -35.8 259.92999999999995 36.4" height="55.383450663589144" data-palette-color="#fa4238"><path d="M27 0L23.3-10.75 9.5-10.75 5.7 0 0.85 0 13.6-35.8 19.5-35.8 32.05 0 27 0ZM10.65-14.6L22-14.6 16.5-30.85 10.65-14.6ZM56.4-25.7L56.4 0 52.35 0 52.35-4.05Q49.6 0.55 44.15 0.55L44.15 0.55Q40.4 0.55 38.17-1.33 35.95-3.2 35.95-6.35L35.95-6.35 35.95-25.7 40-25.7 40-8Q40-5.75 41.45-4.4 42.9-3.05 45.35-3.05L45.35-3.05Q48.55-3.05 50.45-5.38 52.35-7.7 52.35-11.65L52.35-11.65 52.35-25.7 56.4-25.7ZM80.3-35.8L84.4-35.8 84.4 0 80.3 0 80.3-3.55Q77.84 0.6 72.7 0.6L72.7 0.6Q67.05 0.6 64-3.5L64-3.5Q61.34-7.1 61.34-13L61.34-13Q61.34-19.45 64.8-23.1L64.8-23.1Q67.75-26.25 72.45-26.25L72.45-26.25Q77.65-26.25 80.3-22.35L80.3-22.35 80.3-35.8ZM73.15-22.45L73.15-22.45Q69.75-22.45 67.67-19.78 65.59-17.1 65.59-12.7L65.59-12.7Q65.59-8.15 68-5.55L68-5.55Q70.05-3.25 73.2-3.25L73.2-3.25Q76.45-3.25 78.37-5.8 80.3-8.35 80.3-12.7L80.3-12.7Q80.3-17.45 78.09-20.1L78.09-20.1Q76.15-22.45 73.15-22.45ZM90.59-25.7L94.64-25.7 94.64 0 90.59 0 90.59-25.7ZM92.69-35.75L92.69-35.75Q93.74-35.75 94.47-35.02 95.19-34.3 95.19-33.3L95.19-33.3Q95.19-32.25 94.47-31.53 93.74-30.8 92.69-30.8L92.69-30.8Q91.69-30.8 90.97-31.53 90.24-32.25 90.24-33.3L90.24-33.3Q90.24-34.3 90.97-35.02 91.69-35.75 92.69-35.75ZM111.74-26.25L111.74-26.25Q117.54-26.25 120.59-22.2L120.59-22.2Q123.29-18.7 123.29-12.7L123.29-12.7Q123.29-6 119.79-2.5L119.79-2.5Q116.79 0.55 111.69 0.55L111.69 0.55Q105.79 0.55 102.69-3.4L102.69-3.4Q99.99-6.85 99.99-12.7L99.99-12.7Q99.99-19.5 103.54-23.15L103.54-23.15Q106.59-26.25 111.74-26.25ZM111.74-22.5L111.74-22.5Q108.24-22.5 106.24-19.88 104.24-17.25 104.24-12.7L104.24-12.7Q104.24-7.95 106.49-5.45L106.49-5.45Q108.44-3.25 111.69-3.25L111.69-3.25Q115.14-3.25 117.07-5.75 118.99-8.25 118.99-12.7L118.99-12.7Q118.99-17.6 116.79-20.2L116.79-20.2Q114.89-22.5 111.74-22.5ZM154.74 0L138.64 0 138.64-35.8 153.19-35.8Q158.19-35.8 160.94-33.3L160.94-33.3Q163.79-30.7 163.79-26.7L163.79-26.7Q163.79-21.2 158.79-18.9L158.79-18.9Q165.34-16.4 165.34-10.2L165.34-10.2Q165.34-5.9 162.59-3L162.59-3Q159.74 0 154.74 0L154.74 0ZM143.19-31.75L143.19-20.4 152.04-20.4Q155.54-20.4 157.24-21.65L157.24-21.65Q159.19-23.1 159.19-26.05L159.19-26.05Q159.19-29 157.24-30.5L157.24-30.5Q155.54-31.75 152.04-31.75L152.04-31.75 143.19-31.75ZM143.19-16.35L143.19-4.05 154.34-4.05Q157.39-4.05 159.09-5.68 160.79-7.3 160.79-10.2L160.79-10.2Q160.79-13.1 159.09-14.73 157.39-16.35 154.34-16.35L154.34-16.35 143.19-16.35ZM180.98-26.25L180.98-26.25Q186.78-26.25 189.83-22.2L189.83-22.2Q192.53-18.7 192.53-12.7L192.53-12.7Q192.53-6 189.03-2.5L189.03-2.5Q186.03 0.55 180.93 0.55L180.93 0.55Q175.03 0.55 171.93-3.4L171.93-3.4Q169.23-6.85 169.23-12.7L169.23-12.7Q169.23-19.5 172.78-23.15L172.78-23.15Q175.83-26.25 180.98-26.25ZM180.98-22.5L180.98-22.5Q177.48-22.5 175.48-19.88 173.48-17.25 173.48-12.7L173.48-12.7Q173.48-7.95 175.73-5.45L175.73-5.45Q177.68-3.25 180.93-3.25L180.93-3.25Q184.38-3.25 186.31-5.75 188.23-8.25 188.23-12.7L188.23-12.7Q188.23-17.6 186.03-20.2L186.03-20.2Q184.13-22.5 180.98-22.5ZM208.28-26.25L208.28-26.25Q214.08-26.25 217.13-22.2L217.13-22.2Q219.83-18.7 219.83-12.7L219.83-12.7Q219.83-6 216.33-2.5L216.33-2.5Q213.33 0.55 208.23 0.55L208.23 0.55Q202.33 0.55 199.23-3.4L199.23-3.4Q196.53-6.85 196.53-12.7L196.53-12.7Q196.53-19.5 200.08-23.15L200.08-23.15Q203.13-26.25 208.28-26.25ZM208.28-22.5L208.28-22.5Q204.78-22.5 202.78-19.88 200.78-17.25 200.78-12.7L200.78-12.7Q200.78-7.95 203.03-5.45L203.03-5.45Q204.98-3.25 208.23-3.25L208.23-3.25Q211.68-3.25 213.61-5.75 215.53-8.25 215.53-12.7L215.53-12.7Q215.53-17.6 213.33-20.2L213.33-20.2Q211.43-22.5 208.28-22.5ZM230.33-25.7L235.58-25.7 235.58-22.4 230.33-22.4 230.33-5.3Q230.33-4.4 230.95-3.78 231.58-3.15 232.58-3.15L232.58-3.15Q233.53-3.15 235.48-3.6L235.48-3.6 235.93 0Q232.83 0.55 231.23 0.55L231.23 0.55Q226.28 0.55 226.28-3.5L226.28-3.5 226.28-22.4 222.78-22.4 222.78-25.7 226.28-25.7 226.28-30.95 230.33-32.8 230.33-25.7ZM240.38 0L240.38-35.8 244.43-35.8 244.43-22.1Q246.28-24.4 248.13-25.33 249.98-26.25 252.73-26.25L252.73-26.25Q256.48-26.25 258.63-24.38 260.78-22.5 260.78-19.25L260.78-19.25 260.78 0 256.73 0 256.73-17.6Q256.73-20.3 255.08-21.55L255.08-21.55Q253.53-22.7 251.43-22.7L251.43-22.7Q248.28-22.7 246.35-20.35 244.43-18 244.43-14.1L244.43-14.1 244.43 0 240.38 0Z" opacity="1" transform="matrix(1,0,0,1,0,0)" fill="#ffffff" class="wordmark-text-0" data-fill-palette-color="primary" id="text-0"></path></svg></g></svg></g><g transform="matrix(1,0,0,1,0,72.14522054912442)"><svg viewBox="0 0 232.209792 12.40650976040353" height="12.40650976040353" width="232.209792"><g transform="matrix(1,0,0,1,0,0)"><svg width="232.209792" viewBox="0.55 -33.3 753.2700000000001 40.25" height="12.40650976040353" data-palette-color="#fa4238"><path d="M0.55-0.6L0.55-0.6Q0.55-5 2.48-8.2 4.4-11.4 6.5-11.4L6.5-11.4Q7.05-11.4 7.6-11.05L7.6-11.05 7.75-10.7Q7.1-9.45 6.95-7.55L6.95-7.55 6.65-7.35Q6.45-7.45 5.9-7.45 5.35-7.45 4.28-6.85 3.2-6.25 2.6-5.65L2.6-5.65Q2.25-4.95 2.25-4.05L2.25-4.05Q2.25-1.7 5.43-0.03 8.6 1.65 11.55 1.65L11.55 1.65Q17.7 1.65 17.7-5.35L17.7-5.35Q17.7-8 12.65-12L12.65-12Q10.55-13.7 8.45-15.4L8.45-15.4Q3.4-19.4 3.4-22.35L3.4-22.35Q3.4-25.85 6.55-28.88 9.7-31.9 13.7-33.3L13.7-33.3Q18-33.3 21.85-32.45L21.85-32.45 21.85-31.45Q19.25-29.05 18.95-24.05L18.95-24.05 17.7-24.05Q17.7-26.7 17.45-28.7L17.45-28.7Q15.3-29.7 12.78-29.7 10.25-29.7 8.5-28.63 6.75-27.55 6.75-25.9 6.75-24.25 8.22-22.58 9.7-20.9 11.8-19.33 13.9-17.75 15.98-16.13 18.05-14.5 19.53-12.63 21-10.75 21-9L21-9Q21-4 18.25-0.1 15.5 3.8 10.75 5.75L10.75 5.75Q4.5 5.1 0.75 2.25L0.75 2.25Q0.55 0.85 0.55-0.6ZM36.4 0.6Q31.45 0.6 28.4-2.53 25.35-5.65 25.35-10.9 25.35-16.15 28.55-20.75 31.75-25.35 36.9-26.65L36.9-26.65Q42.05-26.65 44.75-23.73 47.45-20.8 47.45-15.4 47.45-10 44.52-5.65 41.6-1.3 36.4 0.6L36.4 0.6ZM35.55-23.6L35.55-23.6Q33.3-23.6 31.65-22.35L31.65-22.35Q29.6-18.85 29.6-13.55L29.6-13.55Q29.6-7.45 33-4.2L33-4.2Q34.8-2.45 37.25-2.45 39.7-2.45 41.2-3.75L41.2-3.75Q43.2-7.25 43.2-12.3 43.2-17.35 41.4-20.48 39.6-23.6 35.55-23.6ZM72.59-14.2L72.59-14.2 72.59-11.85Q72.59-5 73.09-1.6L73.09-1.6Q75.4-1.3 76.9-0.9L76.9-0.9 76.75 0.35Q74.3 0 71.72 0 69.15 0 68.2 0.15L68.2 0.15 68-0.5Q68.45-1 68.59-3.35L68.59-3.35Q66-0.65 62.59 0.6L62.59 0.6Q54 0.6 54-9.65L54-9.65Q54-11.9 54.34-16.85 54.7-21.8 54.7-22.65 54.7-23.5 54.4-24.3L54.4-24.3 54.4-24.35Q52.3-24.7 51.05-25.1L51.05-25.1 51.25-26.45Q54.15-26.05 56.5-26.05 58.84-26.05 60.34-26.3L60.34-26.3 60.55-25.45Q58.75-24.5 58.45-22L58.45-22Q57.84-17.2 57.84-12.15 57.84-7.1 59.02-4.98 60.2-2.85 63.42-2.85 66.65-2.85 68.65-4.7L68.65-4.7Q68.84-8.7 68.84-14.15 68.84-19.6 68.45-24.4L68.45-24.4Q66.2-24.65 64.3-25.15L64.3-25.15 64.45-26.4Q67.05-26.05 70.27-26.05 73.5-26.05 76.05-26.45L76.05-26.45 76.25-25.15Q74.84-24.7 73.09-24.4L73.09-24.4Q72.59-21.05 72.59-14.2ZM92.79-0.9L92.64 0.35Q90.04 0 86.82 0 83.59 0 81.04 0.4L81.04 0.4 80.84-0.9Q82.44-1.4 83.84-1.65L83.84-1.65Q84.29-5.55 84.29-11.85L84.29-11.85 84.29-14.2Q84.29-20.9 83.79-24.5L83.79-24.5Q82.44-24.65 80.54-25.3L80.54-25.3 80.69-26.6Q83.54-26.05 86.67-26.05 89.79-26.05 91.14-26.4L91.14-26.4 91.24-25.55Q89.89-25.2 89.89-24.4L89.89-24.4Q89.89-23.8 91.07-21.88 92.24-19.95 93.34-18.15L93.34-18.15Q96.64-12.9 101.14-5.25L101.14-5.25 101.29-5.35 101.29-11.45Q101.29-18.15 100.59-21.53 99.89-24.9 98.19-25.45L98.19-25.45 98.29-26.3Q99.59-26.05 102.19-26.05 104.79-26.05 107.54-26.6L107.54-26.6 107.69-25.3Q105.64-24.65 104.24-24.5L104.24-24.5Q103.74-20.5 103.74-14.2L103.74-14.2 103.74-11.85Q103.74-4.25 104.24-1.55L104.24-1.55Q106.34-1.2 107.59-0.75L107.59-0.75 107.44 0.55Q104.94 0 102.74 0 100.54 0 99.34 0.2L99.34 0.2Q99.34-0.9 97.82-3.5 96.29-6.1 95.04-8.1L95.04-8.1Q90.99-14.65 87.09-21.4L87.09-21.4 86.89-21.3 86.89-14.6Q86.89-4.65 88.39-1.65L88.39-1.65Q90.64-1.4 92.79-0.9L92.79-0.9ZM111.39-24.7L111.39-25.95 122.89-26.3Q128.59-26.3 131.67-23.6 134.74-20.9 134.74-15.53 134.74-10.15 131.37-5.5 127.99-0.85 122.99 0.6L122.99 0.6Q121.69 0.6 119.62 0.13 117.54-0.35 116.19-0.9L116.19-0.9Q115.64-0.25 115.19 0.95L115.19 0.95 114.14 0.7Q115.09-3.75 115.09-11.88 115.09-20 114.64-24.05L114.64-24.05Q112.94-24.7 111.39-24.7L111.39-24.7ZM128.59-20.95Q127.69-22.65 126.07-23.6 124.44-24.55 122.52-24.55 120.59-24.55 119.19-24L119.19-24Q118.84-20.75 118.84-13.63 118.84-6.5 119.04-3.75L119.04-3.75Q121.54-2.6 124.17-2.6 126.79-2.6 128.34-3.95L128.34-3.95Q130.24-7.55 130.24-12.8L130.24-12.8Q130.24-17.7 128.59-20.95L128.59-20.95ZM162.34-24.35L162.34-24.35Q162.34-25.15 160.99-25.45L160.99-25.45 161.19-26.3Q162.69-26.05 165.11-26.05 167.54-26.05 170.44-26.45L170.44-26.45 170.64-25.15Q169.34-24.7 167.34-24.4L167.34-24.4 159.04-11.9Q159.04-5.4 159.54-1.65L159.54-1.65Q161.74-1.4 163.64-0.9L163.64-0.9 163.49 0.35Q160.89 0 157.51 0 154.14 0 151.59 0.4L151.59 0.4 151.39-0.9Q152.34-1.2 154.79-1.65L154.79-1.65Q155.24-4.35 155.24-9.8L155.24-9.8 155.24-10.85Q149.44-22.55 147.89-24.45L147.89-24.45Q146.49-24.6 144.79-25.15L144.79-25.15 144.99-26.45Q146.99-26.05 150.74-26.05 154.49-26.05 156.89-26.45L156.89-26.45 157.09-25.2Q154.74-24.65 153.14-24.45L153.14-24.45Q154.84-19.25 157.89-13.5L157.89-13.5Q162.34-22.15 162.34-24.35ZM181.93 0.6Q176.98 0.6 173.93-2.53 170.88-5.65 170.88-10.9 170.88-16.15 174.08-20.75 177.28-25.35 182.43-26.65L182.43-26.65Q187.58-26.65 190.28-23.73 192.98-20.8 192.98-15.4 192.98-10 190.06-5.65 187.13-1.3 181.93 0.6L181.93 0.6ZM181.08-23.6L181.08-23.6Q178.83-23.6 177.18-22.35L177.18-22.35Q175.13-18.85 175.13-13.55L175.13-13.55Q175.13-7.45 178.53-4.2L178.53-4.2Q180.33-2.45 182.78-2.45 185.23-2.45 186.73-3.75L186.73-3.75Q188.73-7.25 188.73-12.3 188.73-17.35 186.93-20.48 185.13-23.6 181.08-23.6ZM218.13-14.2L218.13-14.2 218.13-11.85Q218.13-5 218.63-1.6L218.63-1.6Q220.93-1.3 222.43-0.9L222.43-0.9 222.28 0.35Q219.83 0 217.26 0 214.68 0 213.73 0.15L213.73 0.15 213.53-0.5Q213.98-1 214.13-3.35L214.13-3.35Q211.53-0.65 208.13 0.6L208.13 0.6Q199.53 0.6 199.53-9.65L199.53-9.65Q199.53-11.9 199.88-16.85 200.23-21.8 200.23-22.65 200.23-23.5 199.93-24.3L199.93-24.3 199.93-24.35Q197.83-24.7 196.58-25.1L196.58-25.1 196.78-26.45Q199.68-26.05 202.03-26.05 204.38-26.05 205.88-26.3L205.88-26.3 206.08-25.45Q204.28-24.5 203.98-22L203.98-22Q203.38-17.2 203.38-12.15 203.38-7.1 204.56-4.98 205.73-2.85 208.96-2.85 212.18-2.85 214.18-4.7L214.18-4.7Q214.38-8.7 214.38-14.15 214.38-19.6 213.98-24.4L213.98-24.4Q211.73-24.65 209.83-25.15L209.83-25.15 209.98-26.4Q212.58-26.05 215.81-26.05 219.03-26.05 221.58-26.45L221.58-26.45 221.78-25.15Q220.38-24.7 218.63-24.4L218.63-24.4Q218.13-21.05 218.13-14.2ZM226.13-24.95L226.13-25.95 237.63-26.3Q242.13-26.3 244.38-24.98 246.63-23.65 246.63-20.15L246.63-20.15Q246.63-17.75 245.15-15.9 243.68-14.05 241.28-13.15L241.28-13.15 246.88-1.7Q248.58-1.4 250.08-1L250.08-1 249.88 0.35Q247.78 0 245.15 0 242.53 0 241.03 0.25L241.03 0.25 240.83-0.55Q241.48-1.2 241.48-2.7L241.48-2.7Q241.48-5.75 237.98-12.5L237.98-12.5Q236.93-12.7 235.53-12.7L235.53-12.7 235.63-14.15 236.13-14.15Q242.03-14.15 242.03-19.55L242.03-19.55Q242.03-24.55 236.98-24.55L236.98-24.55Q235.28-24.55 233.93-24L233.93-24Q233.58-20.7 233.58-12.7 233.58-4.7 234.03-1.65L234.03-1.65Q236.23-1.4 238.13-0.9L238.13-0.9 237.98 0.35Q235.38 0 232.15 0 228.93 0 226.38 0.4L226.38 0.4 226.18-0.9Q227.58-1.35 229.33-1.65L229.33-1.65Q229.83-5.4 229.83-13.33 229.83-21.25 229.38-24.3L229.38-24.3Q227.43-24.95 226.13-24.95L226.13-24.95ZM264.82-3.8Q267.12-2.85 269.37-2.85 271.62-2.85 272.97-3.9 274.32-4.95 274.32-6.9L274.32-6.9Q274.32-8.9 268.67-11.85L268.67-11.85Q266.52-12.95 264.75-14.53 262.97-16.1 262.97-17.65L262.97-17.65Q262.97-20.3 265.77-23 268.57-25.7 271.52-26.65L271.52-26.65Q275.22-26.65 278.22-25.9L278.22-25.9 278.22-25Q276.12-22.9 275.87-19.25L275.87-19.25 274.62-19.25Q274.62-20.65 274.37-22.75L274.37-22.75Q272.62-23.55 270.62-23.55 268.62-23.55 267.3-22.68 265.97-21.8 265.97-20.15L265.97-20.15Q265.97-19 267.75-17.65 269.52-16.3 271.62-15.25 273.72-14.2 275.5-12.65 277.27-11.1 277.27-9.55L277.27-9.55Q277.27-6.55 274.62-3.58 271.97-0.6 268.77 0.6L268.77 0.6Q265.62 0.6 262.87-0.15L262.87-0.15Q262.07 0.2 261.22 1L261.22 1 260.32 0.35Q263.12-2.7 263.42-7.2L263.42-7.2 264.67-7.2Q264.67-5.45 264.82-3.8L264.82-3.8ZM298.82-23.35L298.82-23.35Q297.07-24.2 295.47-24.2 293.87-24.2 293.32-24L293.32-24Q292.92-21.3 292.92-13.55 292.92-5.8 293.47-1.65L293.47-1.65Q295.72-1.4 297.62-0.9L297.62-0.9 297.47 0.35Q294.87 0 291.5 0 288.12 0 285.57 0.4L285.57 0.4 285.37-0.9Q286.37-1.2 288.82-1.65L288.82-1.65Q289.27-5.25 289.27-11.85L289.27-11.85 289.27-14.2Q289.27-17.7 288.72-24L288.72-24Q288.17-24.2 286.67-24.2 285.17-24.2 283.47-23.5L283.47-23.5Q282.97-21.95 282.77-19.35L282.77-19.35 281.47-19.35Q281.47-23.45 280.12-25.7L280.12-25.7 280.37-26.55Q284.22-26.05 291.17-26.05 298.12-26.05 302.37-26.6L302.37-26.6 302.67-25.65Q301.42-24.25 300.97-22.93 300.52-21.6 300.42-19.35L300.42-19.35 299.17-19.35Q298.82-21 298.82-23.35ZM318.67-24.35L318.67-24.35Q318.67-25.15 317.32-25.45L317.32-25.45 317.52-26.3Q319.02-26.05 321.44-26.05 323.87-26.05 326.77-26.45L326.77-26.45 326.97-25.15Q325.67-24.7 323.67-24.4L323.67-24.4 315.37-11.9Q315.37-5.4 315.87-1.65L315.87-1.65Q318.07-1.4 319.97-0.9L319.97-0.9 319.82 0.35Q317.22 0 313.84 0 310.47 0 307.92 0.4L307.92 0.4 307.72-0.9Q308.67-1.2 311.12-1.65L311.12-1.65Q311.57-4.35 311.57-9.8L311.57-9.8 311.57-10.85Q305.77-22.55 304.22-24.45L304.22-24.45Q302.82-24.6 301.12-25.15L301.12-25.15 301.32-26.45Q303.32-26.05 307.07-26.05 310.82-26.05 313.22-26.45L313.22-26.45 313.42-25.2Q311.07-24.65 309.47-24.45L309.47-24.45Q311.17-19.25 314.22-13.5L314.22-13.5Q318.67-22.15 318.67-24.35ZM345.82-0.45L345.57 0.55Q342.32 0 336.74 0 331.17 0 327.42 0.5L327.42 0.5 327.27-0.75Q328.67-1.3 330.47-1.65L330.47-1.65Q330.97-4.65 330.97-11.85L330.97-11.85 330.97-14.2Q330.97-20.4 330.47-24.4L330.47-24.4Q328.82-24.65 327.32-25.15L327.32-25.15 327.52-26.45Q330.07-26.05 333.52-26.05 336.97-26.05 339.42-26.45L339.42-26.45 339.57-25.2Q337.32-24.65 335.12-24.4L335.12-24.4Q334.72-21.7 334.72-13.28 334.72-4.85 335.12-2.05L335.12-2.05Q336.32-1.85 338.52-1.85 340.72-1.85 342.47-2.7L342.47-2.7Q343.17-4.4 343.17-6.7L343.17-6.7 344.42-6.7Q344.62-2.85 345.82-0.45L345.82-0.45ZM352.01-12.35Q352.16-7.9 353.66-5.4 355.16-2.9 358.76-2.9 362.36-2.9 365.41-5.95L365.41-5.95 366.11-5.25Q362.76-1 358.06 0.6L358.06 0.6Q353.21 0.6 350.46-2.48 347.71-5.55 347.71-10.78 347.71-16 350.96-20.6 354.21-25.2 359.26-26.65L359.26-26.65Q362.91-26.65 367.51-25.9L367.51-25.9 367.46-24.8Q366.51-24.8 365.66-24.45L365.66-24.45Q364.71-22.2 364.41-19.1L364.41-19.1 363.16-19.1Q362.76-20.8 362.76-22.6L362.76-22.6Q360.86-23.55 358.26-23.55 355.66-23.55 353.96-22.15L353.96-22.15Q352.26-19.05 352.01-14.75L352.01-14.75Q354.11-14.4 356.51-14.4L356.51-14.4Q360.66-14.4 361.51-16.15L361.51-16.15 362.56-16Q362.11-14.5 362.11-13.05 362.11-11.6 362.46-9.5L362.46-9.5 361.26-9.3Q360.71-10.8 360.46-12.4L360.46-12.4Q358.46-12.6 356.49-12.6 354.51-12.6 352.01-12.35L352.01-12.35ZM375.86-2.3L375.86-2.3Q375.86 0.2 374.16 2.8 372.46 5.4 370.16 6.95L370.16 6.95 369.66 6.45Q370.71 5.2 371.56 3.38 372.41 1.55 372.46 0.2L372.46 0.2Q371.16-1 370.46-2.3L370.46-2.3Q370.76-2.9 371.61-3.68 372.46-4.45 373.16-4.8L373.16-4.8Q373.81-4.4 374.66-3.63 375.51-2.85 375.86-2.3ZM393.06-3.8Q395.36-2.85 397.61-2.85 399.86-2.85 401.21-3.9 402.56-4.95 402.56-6.9L402.56-6.9Q402.56-8.9 396.91-11.85L396.91-11.85Q394.76-12.95 392.98-14.53 391.21-16.1 391.21-17.65L391.21-17.65Q391.21-20.3 394.01-23 396.81-25.7 399.76-26.65L399.76-26.65Q403.46-26.65 406.46-25.9L406.46-25.9 406.46-25Q404.36-22.9 404.11-19.25L404.11-19.25 402.86-19.25Q402.86-20.65 402.61-22.75L402.61-22.75Q400.86-23.55 398.86-23.55 396.86-23.55 395.53-22.68 394.21-21.8 394.21-20.15L394.21-20.15Q394.21-19 395.98-17.65 397.76-16.3 399.86-15.25 401.96-14.2 403.73-12.65 405.51-11.1 405.51-9.55L405.51-9.55Q405.51-6.55 402.86-3.58 400.21-0.6 397.01 0.6L397.01 0.6Q393.86 0.6 391.11-0.15L391.11-0.15Q390.31 0.2 389.46 1L389.46 1 388.56 0.35Q391.36-2.7 391.66-7.2L391.66-7.2 392.91-7.2Q392.91-5.45 393.06-3.8L393.06-3.8ZM426.3-25.15L426.5-26.45Q429.05-26.05 432.28-26.05 435.5-26.05 438.1-26.4L438.1-26.4 438.25-25.15Q436.35-24.65 434.1-24.4L434.1-24.4Q433.6-21.3 433.6-14.2L433.6-14.2 433.6-11.85Q433.6-4.65 434.1-1.65L434.1-1.65Q436.35-1.4 438.25-0.9L438.25-0.9 438.1 0.35Q435.5 0 432.28 0 429.05 0 426.5 0.4L426.5 0.4 426.3-0.9Q427.7-1.35 429.45-1.65L429.45-1.65Q429.85-7.3 429.9-12.95L429.9-12.95Q426.7-13.25 424-13.25 421.3-13.25 418.15-12.95L418.15-12.95Q418.15-4.7 418.6-1.65L418.6-1.65Q420.85-1.4 422.75-0.9L422.75-0.9 422.6 0.35Q420 0 416.78 0 413.55 0 411 0.4L411 0.4 410.8-0.9Q412.2-1.35 413.95-1.65L413.95-1.65Q414.4-5.25 414.4-11.85L414.4-11.85 414.4-14.2Q414.4-20.8 413.9-24.4L413.9-24.4Q412.15-24.7 410.75-25.15L410.75-25.15 410.95-26.45Q413.5-26.05 416.73-26.05 419.95-26.05 422.55-26.4L422.55-26.4 422.7-25.15Q420.8-24.65 418.55-24.4L418.55-24.4Q418.15-21.5 418.15-15.45L418.15-15.45Q420.95-15.05 424.18-15.05 427.4-15.05 429.9-15.4L429.9-15.4Q429.85-19.65 429.45-24.4L429.45-24.4Q427.7-24.7 426.3-25.15L426.3-25.15ZM452.6 0.6Q447.65 0.6 444.6-2.53 441.55-5.65 441.55-10.9 441.55-16.15 444.75-20.75 447.95-25.35 453.1-26.65L453.1-26.65Q458.25-26.65 460.95-23.73 463.65-20.8 463.65-15.4 463.65-10 460.73-5.65 457.8-1.3 452.6 0.6L452.6 0.6ZM451.75-23.6L451.75-23.6Q449.5-23.6 447.85-22.35L447.85-22.35Q445.8-18.85 445.8-13.55L445.8-13.55Q445.8-7.45 449.2-4.2L449.2-4.2Q451-2.45 453.45-2.45 455.9-2.45 457.4-3.75L457.4-3.75Q459.4-7.25 459.4-12.3 459.4-17.35 457.6-20.48 455.8-23.6 451.75-23.6ZM467.9-24.7L467.9-25.95 479.5-26.3Q488.55-26.3 488.55-19.75L488.55-19.75Q488.55-16.1 485.32-13.85 482.1-11.6 478-11.6L478-11.6Q477.4-11.6 477.15-11.65L477.15-11.65 477.35-13.3 477.8-13.3Q480.9-13.3 482.42-14.65 483.95-16 483.95-18.9 483.95-21.8 482.72-23.18 481.5-24.55 478.8-24.55L478.8-24.55Q477.15-24.55 475.7-24L475.7-24Q475.35-20.7 475.35-12.8 475.35-4.9 475.8-1.65L475.8-1.65Q477.9-1.4 480.2-0.85L480.2-0.85 480.05 0.4Q477.6 0 474.15 0 470.7 0 468.15 0.4L468.15 0.4 467.95-0.9Q469.45-1.4 471.1-1.65L471.1-1.65Q471.6-5.15 471.6-12.58 471.6-20 471.15-24.05L471.15-24.05Q469.4-24.7 467.9-24.7L467.9-24.7ZM514.54-24.35L514.54-24.35Q514.54-25.15 513.19-25.45L513.19-25.45 513.39-26.3Q514.89-26.05 517.32-26.05 519.74-26.05 522.64-26.45L522.64-26.45 522.84-25.15Q521.54-24.7 519.54-24.4L519.54-24.4 511.24-11.9Q511.24-5.4 511.74-1.65L511.74-1.65Q513.94-1.4 515.84-0.9L515.84-0.9 515.69 0.35Q513.09 0 509.72 0 506.34 0 503.79 0.4L503.79 0.4 503.59-0.9Q504.54-1.2 506.99-1.65L506.99-1.65Q507.44-4.35 507.44-9.8L507.44-9.8 507.44-10.85Q501.64-22.55 500.09-24.45L500.09-24.45Q498.69-24.6 496.99-25.15L496.99-25.15 497.19-26.45Q499.19-26.05 502.94-26.05 506.69-26.05 509.09-26.45L509.09-26.45 509.29-25.2Q506.94-24.65 505.34-24.45L505.34-24.45Q507.04-19.25 510.09-13.5L510.09-13.5Q514.54-22.15 514.54-24.35ZM534.14 0.6Q529.19 0.6 526.14-2.53 523.09-5.65 523.09-10.9 523.09-16.15 526.29-20.75 529.49-25.35 534.64-26.65L534.64-26.65Q539.79-26.65 542.49-23.73 545.19-20.8 545.19-15.4 545.19-10 542.26-5.65 539.34-1.3 534.14 0.6L534.14 0.6ZM533.29-23.6L533.29-23.6Q531.04-23.6 529.39-22.35L529.39-22.35Q527.34-18.85 527.34-13.55L527.34-13.55Q527.34-7.45 530.74-4.2L530.74-4.2Q532.54-2.45 534.99-2.45 537.44-2.45 538.94-3.75L538.94-3.75Q540.94-7.25 540.94-12.3 540.94-17.35 539.14-20.48 537.34-23.6 533.29-23.6ZM570.34-14.2L570.34-14.2 570.34-11.85Q570.34-5 570.84-1.6L570.84-1.6Q573.14-1.3 574.64-0.9L574.64-0.9 574.49 0.35Q572.04 0 569.46 0 566.89 0 565.94 0.15L565.94 0.15 565.74-0.5Q566.19-1 566.34-3.35L566.34-3.35Q563.74-0.65 560.34 0.6L560.34 0.6Q551.74 0.6 551.74-9.65L551.74-9.65Q551.74-11.9 552.09-16.85 552.44-21.8 552.44-22.65 552.44-23.5 552.14-24.3L552.14-24.3 552.14-24.35Q550.04-24.7 548.79-25.1L548.79-25.1 548.99-26.45Q551.89-26.05 554.24-26.05 556.59-26.05 558.09-26.3L558.09-26.3 558.29-25.45Q556.49-24.5 556.19-22L556.19-22Q555.59-17.2 555.59-12.15 555.59-7.1 556.76-4.98 557.94-2.85 561.16-2.85 564.39-2.85 566.39-4.7L566.39-4.7Q566.59-8.7 566.59-14.15 566.59-19.6 566.19-24.4L566.19-24.4Q563.94-24.65 562.04-25.15L562.04-25.15 562.19-26.4Q564.79-26.05 568.01-26.05 571.24-26.05 573.79-26.45L573.79-26.45 573.99-25.15Q572.59-24.7 570.84-24.4L570.84-24.4Q570.34-21.05 570.34-14.2ZM578.33-24.95L578.33-25.95 589.83-26.3Q594.33-26.3 596.58-24.98 598.83-23.65 598.83-20.15L598.83-20.15Q598.83-17.75 597.36-15.9 595.88-14.05 593.48-13.15L593.48-13.15 599.08-1.7Q600.78-1.4 602.28-1L602.28-1 602.08 0.35Q599.98 0 597.36 0 594.73 0 593.23 0.25L593.23 0.25 593.03-0.55Q593.68-1.2 593.68-2.7L593.68-2.7Q593.68-5.75 590.18-12.5L590.18-12.5Q589.13-12.7 587.73-12.7L587.73-12.7 587.83-14.15 588.33-14.15Q594.23-14.15 594.23-19.55L594.23-19.55Q594.23-24.55 589.18-24.55L589.18-24.55Q587.48-24.55 586.13-24L586.13-24Q585.78-20.7 585.78-12.7 585.78-4.7 586.23-1.65L586.23-1.65Q588.43-1.4 590.33-0.9L590.33-0.9 590.18 0.35Q587.58 0 584.36 0 581.13 0 578.58 0.4L578.58 0.4 578.38-0.9Q579.78-1.35 581.53-1.65L581.53-1.65Q582.03-5.4 582.03-13.33 582.03-21.25 581.58-24.3L581.58-24.3Q579.63-24.95 578.33-24.95L578.33-24.95ZM617.03-3.8Q619.33-2.85 621.58-2.85 623.83-2.85 625.18-3.9 626.53-4.95 626.53-6.9L626.53-6.9Q626.53-8.9 620.88-11.85L620.88-11.85Q618.73-12.95 616.95-14.53 615.18-16.1 615.18-17.65L615.18-17.65Q615.18-20.3 617.98-23 620.78-25.7 623.73-26.65L623.73-26.65Q627.43-26.65 630.43-25.9L630.43-25.9 630.43-25Q628.33-22.9 628.08-19.25L628.08-19.25 626.83-19.25Q626.83-20.65 626.58-22.75L626.58-22.75Q624.83-23.55 622.83-23.55 620.83-23.55 619.5-22.68 618.18-21.8 618.18-20.15L618.18-20.15Q618.18-19 619.95-17.65 621.73-16.3 623.83-15.25 625.93-14.2 627.7-12.65 629.48-11.1 629.48-9.55L629.48-9.55Q629.48-6.55 626.83-3.58 624.18-0.6 620.98 0.6L620.98 0.6Q617.83 0.6 615.08-0.15L615.08-0.15Q614.28 0.2 613.43 1L613.43 1 612.53 0.35Q615.33-2.7 615.63-7.2L615.63-7.2 616.88-7.2Q616.88-5.45 617.03-3.8L617.03-3.8ZM645.68 0.6Q640.73 0.6 637.68-2.53 634.63-5.65 634.63-10.9 634.63-16.15 637.83-20.75 641.03-25.35 646.18-26.65L646.18-26.65Q651.33-26.65 654.03-23.73 656.73-20.8 656.73-15.4 656.73-10 653.8-5.65 650.88-1.3 645.68 0.6L645.68 0.6ZM644.83-23.6L644.83-23.6Q642.58-23.6 640.93-22.35L640.93-22.35Q638.88-18.85 638.88-13.55L638.88-13.55Q638.88-7.45 642.28-4.2L642.28-4.2Q644.08-2.45 646.53-2.45 648.98-2.45 650.48-3.75L650.48-3.75Q652.48-7.25 652.48-12.3 652.48-17.35 650.68-20.48 648.88-23.6 644.83-23.6ZM681.87-14.2L681.87-14.2 681.87-11.85Q681.87-5 682.37-1.6L682.37-1.6Q684.67-1.3 686.17-0.9L686.17-0.9 686.02 0.35Q683.57 0 681 0 678.42 0 677.47 0.15L677.47 0.15 677.27-0.5Q677.72-1 677.87-3.35L677.87-3.35Q675.27-0.65 671.87 0.6L671.87 0.6Q663.27 0.6 663.27-9.65L663.27-9.65Q663.27-11.9 663.62-16.85 663.97-21.8 663.97-22.65 663.97-23.5 663.67-24.3L663.67-24.3 663.67-24.35Q661.57-24.7 660.32-25.1L660.32-25.1 660.52-26.45Q663.42-26.05 665.77-26.05 668.12-26.05 669.62-26.3L669.62-26.3 669.82-25.45Q668.02-24.5 667.72-22L667.72-22Q667.12-17.2 667.12-12.15 667.12-7.1 668.3-4.98 669.47-2.85 672.7-2.85 675.92-2.85 677.92-4.7L677.92-4.7Q678.12-8.7 678.12-14.15 678.12-19.6 677.72-24.4L677.72-24.4Q675.47-24.65 673.57-25.15L673.57-25.15 673.72-26.4Q676.32-26.05 679.55-26.05 682.77-26.05 685.32-26.45L685.32-26.45 685.52-25.15Q684.12-24.7 682.37-24.4L682.37-24.4Q681.87-21.05 681.87-14.2ZM702.07-0.9L701.92 0.35Q699.32 0 696.1 0 692.87 0 690.32 0.4L690.32 0.4 690.12-0.9Q691.72-1.4 693.12-1.65L693.12-1.65Q693.57-5.55 693.57-11.85L693.57-11.85 693.57-14.2Q693.57-20.9 693.07-24.5L693.07-24.5Q691.72-24.65 689.82-25.3L689.82-25.3 689.97-26.6Q692.82-26.05 695.95-26.05 699.07-26.05 700.42-26.4L700.42-26.4 700.52-25.55Q699.17-25.2 699.17-24.4L699.17-24.4Q699.17-23.8 700.35-21.88 701.52-19.95 702.62-18.15L702.62-18.15Q705.92-12.9 710.42-5.25L710.42-5.25 710.57-5.35 710.57-11.45Q710.57-18.15 709.87-21.53 709.17-24.9 707.47-25.45L707.47-25.45 707.57-26.3Q708.87-26.05 711.47-26.05 714.07-26.05 716.82-26.6L716.82-26.6 716.97-25.3Q714.92-24.65 713.52-24.5L713.52-24.5Q713.02-20.5 713.02-14.2L713.02-14.2 713.02-11.85Q713.02-4.25 713.52-1.55L713.52-1.55Q715.62-1.2 716.87-0.75L716.87-0.75 716.72 0.55Q714.22 0 712.02 0 709.82 0 708.62 0.2L708.62 0.2Q708.62-0.9 707.1-3.5 705.57-6.1 704.32-8.1L704.32-8.1Q700.27-14.65 696.37-21.4L696.37-21.4 696.17-21.3 696.17-14.6Q696.17-4.65 697.67-1.65L697.67-1.65Q699.92-1.4 702.07-0.9L702.07-0.9ZM720.67-24.7L720.67-25.95 732.17-26.3Q737.87-26.3 740.94-23.6 744.02-20.9 744.02-15.53 744.02-10.15 740.64-5.5 737.27-0.85 732.27 0.6L732.27 0.6Q730.97 0.6 728.89 0.13 726.82-0.35 725.47-0.9L725.47-0.9Q724.92-0.25 724.47 0.95L724.47 0.95 723.42 0.7Q724.37-3.75 724.37-11.88 724.37-20 723.92-24.05L723.92-24.05Q722.22-24.7 720.67-24.7L720.67-24.7ZM737.87-20.95Q736.97-22.65 735.34-23.6 733.72-24.55 731.79-24.55 729.87-24.55 728.47-24L728.47-24Q728.12-20.75 728.12-13.63 728.12-6.5 728.32-3.75L728.32-3.75Q730.82-2.6 733.44-2.6 736.07-2.6 737.62-3.95L737.62-3.95Q739.52-7.55 739.52-12.8L739.52-12.8Q739.52-17.7 737.87-20.95L737.87-20.95ZM753.82-2.3L753.82-2.3Q753.47-1.65 752.59-0.65 751.72 0.35 751.12 0.75L751.12 0.75Q750.52 0.35 749.64-0.65 748.77-1.65 748.42-2.3L748.42-2.3Q748.72-2.9 749.57-3.68 750.42-4.45 751.12-4.8L751.12-4.8Q751.77-4.4 752.62-3.63 753.47-2.85 753.82-2.3Z" opacity="1" transform="matrix(1,0,0,1,0,0)" fill="#ffffff" class="slogan-text-1" data-fill-palette-color="secondary" id="text-1"></path></svg></g></svg></g></svg></g></svg></g><g><svg viewBox="0 0 219.95411484663106 221.35642995034416" height="221.35642995034416" width="219.95411484663106"><g><svg xmlns="http://www.w3.org/2000/svg" width="219.95411484663106" height="221.35642995034416" version="1.0" viewBox="-0.009190884926059573 0.024516600406061025 274.07919088492605 275.82657983129513" x="0" y="0" class="icon-icon-0" data-fill-palette-color="accent" id="icon-0"><path d="M117.67 0.55c-14.2 2.3-18 3.1-19.3 4.5-1.7 1.6-2 6.9-0.5 7.8 1.5 0.9 0.4 2.2-2.7 3-1.6 0.3-7.3 2.5-12.8 4.7-30.7 12.3-53.9 34.1-68.5 64.3-8.6 17.9-12.7 36.2-13.7 61.5-0.7 17.2 0.6 26.6 4.8 34.8 2.6 5.1 2.8 6.4 2.3 12.3-1.3 13.2 3.6 38.8 10.2 53.6 5.3 12.1 14.3 21 23.7 23.8 2.9 0.8 13 2.4 22.6 3.5 13.6 1.6 18.6 1.9 22.3 1 13.9-2.9 23.7-13.3 26.8-28.5 1.4-6.6 0.9-17.1-1.6-39-3.3-28.7-8.8-44.7-19.4-56.8-11.3-12.8-33.9-15.3-45.8-5.1-2.6 2.2-5.1 3.4-6.9 3.4-6.4 0-16.9 9.4-22.3 19.9-2.4 4.9-2.8 5.3-3.7 3.5-1.8-3.3-2.5-21.3-1.3-34.9 1.8-22.9 6.7-39.4 16.9-57 7.4-12.9 19.7-26.6 31.7-35.6 12-8.9 32.3-18 43.5-19.5 4.3-0.6 4.9-0.9 4.9-3.1 0-1.3-0.6-3.9-1.4-5.7l-1.4-3.3 6.3-1.1c7.8-1.5 39.1-1.6 47.1-0.1 9.8 1.7 9.3 1.3 8.7 7.2l-0.5 5.2 8.8 2.3c18.4 4.6 40.1 18.1 53.3 33.2 17.5 19.8 27.6 40.7 31.6 65.5 2.3 13.8 1.9 45.2-0.5 44.3-0.4-0.2-2.9-3.2-5.6-6.8-6.1-8-12-12.6-17.6-13.5-2.7-0.5-5.8-2-8.3-4.2-11.1-9.5-31-7.8-42.4 3.6-15.9 15.9-28.3 78.5-20.6 103.9 1.9 6.4 8.4 14.6 14.5 18.3 6.4 3.9 15.6 5.2 28 3.9 19-1.9 30.1-4.9 37.6-10 9-6.2 14.9-17.7 20.1-38.8 2.6-10.6 2.8-14.9 2.2-39.2-0.1-1.9 1.1-6.9 2.6-11l2.7-7.5-0.5-21.5c-0.6-22.5-2.2-33.9-6.8-47.9-2.8-8.5-10.8-24.7-16.7-33.6-5.7-8.6-19.4-23-28.1-29.5-8.6-6.5-23.4-14.1-35.1-18.1-5.2-1.8-9.6-3.3-9.8-3.4-0.1-0.1 0.5-1.6 1.5-3.3 1.7-2.9 1.7-3.1 0-5-3.1-3.4-22.4-6-47.9-6.5-4.8-0.1-10.6 0.1-13 0.5m-45.4 150.9c9.4 2.6 19.6 17.1 23.6 33.4 5.1 21.1 8.2 51.7 6.1 61-2 9-8.5 16.1-16.8 18.4-2.1 0.6-8.2 0.5-17-0.4-22.3-2.2-28.3-4.2-34.6-11.6-7.1-8.3-14.4-32-15.4-49.9-0.4-8-0.2-10.5 1.6-15.8 3.8-11.2 9.3-19.5 15.2-23.1 4.7-2.9 5.2-2.7 4.4 1.6-0.8 5.2 1.1 35.9 3 46.7 2.5 14.5 7.5 19.6 11.5 12 1.2-2.1 1.1-4.9-0.3-17.7-1-8.3-1.7-17.1-1.7-19.3 0-3-0.5-4.4-1.6-4.8-2.6-1-1.5-17.6 1.5-23.4 3.6-6.9 11.4-9.6 20.5-7.1m146.2 0.5c2.1 1 4.5 3.5 6.2 6.3 2.4 4.1 2.7 5.5 2.6 13.3-0.1 4.8-0.6 9.3-1.2 10-0.9 1.2-1.5 6.1-3.9 33.9-0.6 7.2 0.6 10.9 3.6 10.9 2.1 0 5.6-3.5 7-7.2 1.7-4.5 4.2-29.3 4.4-43.9l0.2-13.7 2.6 1.4c4 2 11.5 10.9 14.3 16.8 3.4 7.1 4.5 12.6 4.6 21.6 0 12.9-7.1 40.1-12.9 49.2-5.2 8.2-17.7 12.4-39.7 13.5-17.3 0.8-22.7-1.5-28.2-12.1-2.2-4.4-2.7-6.6-3-16.1-0.9-26.2 8.3-64.3 18.8-77.5 5.8-7.3 16.7-10.1 24.6-6.4" fill="#ffffff" data-fill-palette-color="accent"></path></svg></g></svg></g></svg></g><defs></defs></svg><rect width="395.52" height="138.85365089649233" fill="none" stroke="none" visibility="hidden"></rect></g></svg></g></svg>